<svg id="svg" xmlns="http://www.w3.org/2000/svg" xmlns:xlink="http://www.w3.org/1999/xlink" width="400" height="335.9349593495935" viewBox="0, 0, 400,335.9349593495935"><g id="svgg"><path id="path0" d="M59.919 167.744 C 27.008 260.001,0.058 335.586,0.029 335.710 C -0.016 335.901,3.487 335.935,23.199 335.935 L 46.423 335.935 46.911 335.516 C 47.179 335.286,47.874 334.645,48.455 334.091 C 49.037 333.536,50.720 331.959,52.195 330.586 C 53.671 329.212,55.371 327.584,55.973 326.968 C 56.575 326.352,57.121 325.855,57.186 325.863 C 57.251 325.871,57.357 325.744,57.421 325.581 C 57.486 325.418,57.543 325.339,57.550 325.405 C 57.556 325.471,58.014 325.068,58.568 324.510 C 59.121 323.952,59.634 323.514,59.706 323.537 C 59.778 323.559,59.837 323.504,59.837 323.415 C 59.837 323.325,59.984 323.106,60.163 322.927 C 60.341 322.748,60.488 322.623,60.488 322.649 C 60.488 322.675,61.058 322.144,61.754 321.470 C 63.119 320.149,63.842 319.468,67.967 315.623 C 69.443 314.247,71.174 312.589,71.813 311.938 C 72.453 311.287,73.020 310.798,73.073 310.851 C 73.127 310.905,73.171 310.827,73.171 310.678 C 73.171 310.528,73.227 310.425,73.297 310.447 C 73.366 310.470,73.878 310.023,74.435 309.454 C 74.992 308.886,75.452 308.483,75.457 308.560 C 75.463 308.637,75.536 308.530,75.619 308.323 C 75.702 308.116,75.843 307.992,75.934 308.048 C 76.024 308.104,76.098 308.041,76.098 307.909 C 76.098 307.777,76.163 307.645,76.243 307.615 C 76.323 307.585,77.285 306.720,78.382 305.691 C 79.478 304.663,80.456 303.746,80.554 303.655 C 85.215 299.305,86.475 298.106,87.520 297.030 C 88.213 296.316,88.780 295.783,88.780 295.847 C 88.780 295.910,89.340 295.389,90.025 294.688 C 90.709 293.988,91.331 293.433,91.407 293.455 C 91.483 293.478,91.545 293.429,91.545 293.347 C 91.545 293.152,93.593 291.185,93.761 291.218 C 93.832 291.232,93.929 291.147,93.977 291.028 C 94.026 290.910,95.272 289.685,96.748 288.307 C 100.014 285.255,101.296 284.036,102.942 282.414 C 103.636 281.729,104.246 281.211,104.297 281.262 C 104.348 281.313,104.390 281.229,104.390 281.074 C 104.390 280.920,104.464 280.839,104.554 280.895 C 104.644 280.951,104.786 280.827,104.869 280.620 C 104.952 280.413,105.025 280.297,105.030 280.361 C 105.036 280.425,105.415 280.096,105.872 279.629 C 106.329 279.162,106.768 278.799,106.847 278.821 C 106.927 278.843,106.992 278.748,106.992 278.608 C 106.992 278.469,107.065 278.400,107.154 278.455 C 107.244 278.511,107.317 278.482,107.317 278.393 C 107.317 278.174,109.112 276.493,109.290 276.545 C 109.368 276.567,109.431 276.481,109.431 276.353 C 109.431 276.226,109.632 275.963,109.878 275.770 C 110.414 275.348,114.532 271.491,116.301 269.752 C 116.994 269.072,117.561 268.550,117.561 268.594 C 117.561 268.638,118.101 268.116,118.761 267.434 C 119.421 266.752,120.010 266.243,120.068 266.302 C 120.127 266.360,120.218 266.248,120.269 266.052 C 120.320 265.855,120.427 265.735,120.506 265.784 C 120.586 265.833,120.650 265.759,120.650 265.619 C 120.650 265.480,120.731 265.366,120.829 265.366 C 120.927 265.366,121.341 265.003,121.749 264.559 C 122.156 264.115,122.551 263.790,122.627 263.837 C 122.702 263.883,122.764 263.841,122.764 263.742 C 122.764 263.643,122.937 263.401,123.149 263.204 C 123.772 262.625,127.753 258.897,129.345 257.403 C 130.152 256.645,131.380 255.458,132.073 254.766 C 132.766 254.074,133.333 253.551,133.333 253.604 C 133.333 253.657,133.894 253.124,134.580 252.419 C 135.266 251.715,135.888 251.157,135.962 251.179 C 136.037 251.201,136.098 251.105,136.098 250.966 C 136.098 250.827,136.165 250.754,136.248 250.806 C 136.331 250.857,136.448 250.746,136.507 250.559 C 136.567 250.372,136.648 250.252,136.688 250.293 C 136.729 250.333,137.114 250.011,137.545 249.578 C 137.977 249.145,138.376 248.837,138.433 248.894 C 138.490 248.951,138.537 248.896,138.537 248.772 C 138.537 248.648,138.738 248.375,138.984 248.164 C 139.230 247.954,139.907 247.328,140.488 246.775 C 141.069 246.222,142.642 244.748,143.984 243.499 C 145.325 242.251,146.965 240.693,147.627 240.038 C 148.289 239.382,148.966 238.774,149.131 238.686 C 149.296 238.597,149.431 238.418,149.431 238.287 C 149.431 238.156,149.488 238.067,149.557 238.089 C 149.626 238.112,150.139 237.665,150.695 237.097 C 151.252 236.528,151.712 236.126,151.718 236.202 C 151.723 236.279,151.796 236.172,151.879 235.965 C 151.962 235.758,152.104 235.634,152.194 235.690 C 152.284 235.746,152.358 235.677,152.358 235.538 C 152.358 235.399,152.416 235.285,152.487 235.285 C 152.558 235.285,153.169 234.754,153.845 234.106 C 155.342 232.670,156.201 231.863,159.756 228.553 C 161.276 227.137,162.974 225.512,163.529 224.941 C 164.084 224.370,164.615 223.902,164.708 223.902 C 164.802 223.902,164.878 223.793,164.878 223.659 C 164.878 223.524,164.936 223.433,165.007 223.455 C 165.078 223.478,165.590 223.029,166.145 222.459 C 166.700 221.889,167.159 221.487,167.165 221.565 C 167.170 221.643,167.243 221.538,167.326 221.331 C 167.409 221.124,167.551 221.000,167.641 221.056 C 167.731 221.112,167.805 221.031,167.805 220.877 C 167.805 220.722,167.844 220.636,167.893 220.684 C 167.941 220.732,168.430 220.309,168.979 219.744 C 169.529 219.179,170.032 218.750,170.099 218.791 C 170.165 218.832,170.243 218.772,170.272 218.657 C 170.301 218.542,172.118 216.775,174.309 214.731 C 176.500 212.687,178.779 210.517,179.374 209.909 C 179.969 209.300,180.499 208.846,180.553 208.900 C 180.607 208.953,180.650 208.871,180.650 208.717 C 180.650 208.562,180.724 208.482,180.814 208.537 C 180.905 208.593,181.046 208.469,181.129 208.262 C 181.212 208.056,181.285 207.941,181.291 208.009 C 181.296 208.076,181.657 207.768,182.092 207.323 C 182.528 206.879,182.933 206.564,182.993 206.624 C 183.053 206.685,183.144 206.573,183.196 206.377 C 183.247 206.181,183.354 206.060,183.433 206.109 C 183.512 206.158,183.577 206.125,183.577 206.035 C 183.577 205.816,185.372 204.135,185.550 204.187 C 185.628 204.209,185.691 204.150,185.691 204.055 C 185.691 203.960,186.219 203.384,186.865 202.774 L 188.039 201.666 209.283 268.679 L 230.528 335.691 254.056 335.732 C 276.710 335.772,277.580 335.763,277.490 335.479 C 277.438 335.317,265.141 297.730,250.162 251.953 L 222.928 168.721 223.944 167.632 C 224.502 167.033,225.028 166.535,225.111 166.524 C 225.195 166.513,225.777 165.974,226.404 165.325 C 227.032 164.677,227.604 164.165,227.675 164.187 C 227.747 164.209,227.805 164.114,227.805 163.974 C 227.805 163.835,227.878 163.766,227.967 163.821 C 228.057 163.876,228.130 163.808,228.130 163.668 C 228.130 163.529,228.199 163.415,228.283 163.415 C 228.367 163.415,229.011 162.848,229.715 162.154 C 231.252 160.640,232.401 159.554,235.935 156.274 C 237.411 154.905,239.109 153.281,239.710 152.665 C 240.310 152.049,240.877 151.545,240.970 151.545 C 241.063 151.545,241.138 151.435,241.138 151.301 C 241.138 151.167,241.202 151.075,241.280 151.098 C 241.359 151.120,241.863 150.685,242.400 150.131 C 242.938 149.577,243.423 149.168,243.478 149.223 C 243.532 149.278,243.577 149.196,243.577 149.042 C 243.577 148.888,243.651 148.807,243.741 148.863 C 243.831 148.918,243.973 148.795,244.056 148.588 C 244.139 148.381,244.212 148.260,244.217 148.319 C 244.223 148.379,244.680 147.962,245.233 147.393 C 245.786 146.824,246.298 146.396,246.371 146.441 C 246.444 146.486,246.510 146.427,246.517 146.310 C 246.523 146.193,247.992 144.744,249.780 143.089 C 251.567 141.435,253.868 139.272,254.893 138.283 C 255.917 137.293,256.790 136.519,256.833 136.562 C 256.876 136.605,256.911 136.518,256.911 136.369 C 256.911 136.220,256.967 136.116,257.037 136.138 C 257.106 136.161,257.608 135.724,258.153 135.168 C 258.697 134.612,259.192 134.206,259.253 134.266 C 259.313 134.327,259.404 134.215,259.456 134.019 C 259.507 133.823,259.614 133.702,259.693 133.751 C 259.773 133.800,259.837 133.726,259.837 133.587 C 259.837 133.447,259.899 133.333,259.973 133.333 C 260.048 133.333,260.463 132.986,260.895 132.561 C 261.327 132.136,261.742 131.807,261.816 131.829 C 261.890 131.852,261.951 131.787,261.951 131.685 C 261.951 131.584,262.152 131.317,262.398 131.092 C 262.894 130.638,266.300 127.463,268.450 125.449 C 269.213 124.734,270.441 123.547,271.179 122.812 C 271.917 122.076,272.520 121.518,272.520 121.571 C 272.520 121.624,273.081 121.091,273.767 120.387 C 274.453 119.682,275.075 119.124,275.149 119.146 C 275.224 119.169,275.285 119.065,275.285 118.916 C 275.285 118.767,275.327 118.688,275.379 118.740 C 275.431 118.792,275.916 118.366,276.457 117.794 C 276.998 117.223,277.499 116.791,277.570 116.835 C 277.641 116.879,277.723 116.821,277.752 116.707 C 277.781 116.592,279.634 114.787,281.870 112.696 C 284.106 110.604,286.447 108.370,287.073 107.731 C 287.699 107.093,288.282 106.561,288.368 106.549 C 288.454 106.538,288.576 106.395,288.641 106.232 C 288.705 106.068,288.763 105.985,288.769 106.047 C 288.775 106.109,289.245 105.689,289.814 105.116 C 290.382 104.542,290.894 104.119,290.952 104.177 C 291.010 104.235,291.057 104.166,291.057 104.024 C 291.057 103.883,291.126 103.743,291.210 103.713 C 291.293 103.683,291.970 103.078,292.714 102.369 C 294.565 100.602,295.734 99.504,298.862 96.590 C 300.337 95.216,302.035 93.591,302.634 92.980 C 303.234 92.370,303.801 91.870,303.895 91.870 C 303.988 91.870,304.065 91.756,304.065 91.616 C 304.065 91.477,304.138 91.408,304.228 91.463 C 304.317 91.519,304.390 91.450,304.390 91.310 C 304.390 91.171,304.466 91.057,304.559 91.057 C 304.652 91.057,305.067 90.709,305.481 90.285 C 305.895 89.860,306.295 89.530,306.369 89.553 C 306.443 89.575,306.504 89.520,306.504 89.431 C 306.504 89.341,306.650 89.122,306.829 88.943 C 307.008 88.764,307.154 88.642,307.154 88.672 C 307.154 88.702,307.685 88.203,308.333 87.563 C 308.982 86.923,311.268 84.766,313.415 82.769 C 315.561 80.773,317.839 78.604,318.476 77.951 C 319.114 77.298,319.681 76.808,319.737 76.864 C 319.792 76.919,319.837 76.839,319.837 76.684 C 319.837 76.530,319.911 76.449,320.001 76.505 C 320.092 76.561,320.233 76.437,320.316 76.230 C 320.399 76.023,320.472 75.903,320.477 75.962 C 320.483 76.022,320.854 75.703,321.301 75.253 C 321.748 74.804,322.118 74.499,322.124 74.576 C 322.130 74.653,322.202 74.546,322.285 74.339 C 322.368 74.132,322.510 74.008,322.600 74.064 C 322.690 74.120,322.764 74.058,322.764 73.926 C 322.764 73.794,322.833 73.661,322.917 73.631 C 323.001 73.602,323.568 73.099,324.177 72.514 C 324.786 71.929,326.455 70.362,327.886 69.032 C 330.955 66.180,332.111 65.078,334.007 63.200 C 334.779 62.434,335.450 61.845,335.496 61.892 C 335.542 61.938,335.629 61.823,335.688 61.636 C 335.747 61.449,335.864 61.338,335.947 61.389 C 336.030 61.441,336.098 61.369,336.098 61.229 C 336.098 61.090,336.159 60.976,336.233 60.976 C 336.308 60.976,336.723 60.628,337.155 60.203 C 337.588 59.778,338.002 59.449,338.076 59.472 C 338.151 59.494,338.211 59.429,338.211 59.328 C 338.211 59.227,338.373 59.003,338.571 58.832 C 338.769 58.660,339.412 58.066,340.001 57.512 C 340.589 56.958,342.202 55.446,343.584 54.152 C 344.967 52.858,346.701 51.203,347.439 50.474 C 348.177 49.744,348.780 49.185,348.780 49.231 C 348.780 49.277,349.378 48.700,350.109 47.950 C 350.839 47.199,351.377 46.688,351.303 46.814 C 351.213 46.968,351.230 47.004,351.357 46.926 C 351.460 46.862,351.545 46.692,351.545 46.549 C 351.545 46.405,351.587 46.329,351.638 46.380 C 351.689 46.432,352.201 45.987,352.776 45.392 C 353.351 44.797,353.826 44.383,353.833 44.472 C 353.839 44.561,353.894 44.522,353.955 44.385 C 354.015 44.248,355.858 42.463,358.049 40.419 C 360.240 38.375,362.510 36.215,363.095 35.618 C 363.679 35.022,364.284 34.485,364.440 34.425 C 364.596 34.365,364.790 34.150,364.872 33.947 C 364.953 33.743,365.025 33.632,365.030 33.700 C 365.036 33.768,365.399 33.457,365.838 33.009 C 366.276 32.561,366.715 32.195,366.813 32.195 C 366.911 32.195,366.992 32.081,366.992 31.942 C 366.992 31.802,367.065 31.733,367.154 31.789 C 367.244 31.844,367.317 31.775,367.317 31.636 C 367.317 31.496,367.383 31.382,367.464 31.382 C 367.545 31.382,367.959 31.019,368.384 30.575 C 368.809 30.132,369.219 29.807,369.294 29.853 C 369.369 29.900,369.431 29.851,369.431 29.744 C 369.431 29.637,369.632 29.367,369.878 29.145 C 370.124 28.922,370.801 28.290,371.382 27.741 C 371.963 27.191,373.646 25.615,375.122 24.238 C 376.598 22.861,378.315 21.216,378.938 20.583 C 379.562 19.949,380.108 19.455,380.151 19.484 C 380.195 19.513,380.284 19.403,380.348 19.240 C 380.412 19.077,380.470 19.005,380.476 19.080 C 380.483 19.156,380.939 18.754,381.491 18.186 C 382.042 17.619,382.554 17.173,382.629 17.195 C 382.703 17.217,382.764 17.122,382.764 16.982 C 382.764 16.843,382.832 16.771,382.915 16.822 C 382.998 16.873,383.115 16.762,383.174 16.575 C 383.233 16.389,383.316 16.270,383.358 16.312 C 383.400 16.354,383.768 16.031,384.176 15.595 C 384.584 15.159,384.982 14.842,385.060 14.890 C 385.139 14.939,385.203 14.885,385.203 14.771 C 385.203 14.657,385.404 14.391,385.650 14.180 C 385.896 13.970,386.573 13.342,387.154 12.785 C 387.736 12.228,389.419 10.650,390.894 9.278 C 392.370 7.906,394.101 6.250,394.741 5.599 C 395.381 4.947,395.948 4.458,396.001 4.511 C 396.054 4.564,396.098 4.485,396.098 4.336 C 396.098 4.187,396.152 4.083,396.220 4.105 C 396.287 4.126,396.799 3.677,397.358 3.107 C 397.917 2.536,398.379 2.134,398.384 2.213 C 398.390 2.293,398.463 2.188,398.546 1.981 C 398.629 1.774,398.770 1.651,398.860 1.706 C 398.951 1.762,399.024 1.729,399.024 1.633 C 399.024 1.537,399.262 1.242,399.553 0.978 L 400.081 0.497 370.644 0.493 L 341.207 0.488 339.343 2.210 C 338.318 3.157,337.009 4.419,336.433 5.015 C 335.858 5.610,335.327 6.079,335.255 6.057 C 335.182 6.035,335.122 6.126,335.122 6.260 C 335.122 6.394,335.067 6.486,335.000 6.465 C 334.933 6.443,334.421 6.892,333.862 7.462 C 333.303 8.033,332.841 8.435,332.835 8.356 C 332.830 8.276,332.757 8.381,332.674 8.588 C 332.591 8.795,332.449 8.918,332.359 8.863 C 332.269 8.807,332.195 8.869,332.195 9.001 C 332.195 9.133,332.126 9.266,332.042 9.295 C 331.958 9.325,331.391 9.827,330.782 10.410 C 330.173 10.993,328.467 12.595,326.992 13.971 C 325.516 15.347,323.786 17.005,323.146 17.656 C 322.506 18.307,321.939 18.796,321.886 18.742 C 321.832 18.689,321.789 18.771,321.789 18.926 C 321.789 19.080,321.715 19.161,321.625 19.105 C 321.534 19.049,321.393 19.173,321.310 19.380 C 321.227 19.587,321.154 19.701,321.149 19.633 C 321.143 19.566,320.772 19.884,320.325 20.341 C 319.878 20.798,319.508 21.109,319.502 21.033 C 319.496 20.957,319.424 21.064,319.341 21.271 C 319.258 21.478,319.116 21.601,319.026 21.546 C 318.936 21.490,318.862 21.552,318.862 21.684 C 318.862 21.816,318.794 21.949,318.712 21.978 C 318.630 22.008,317.551 22.984,316.315 24.146 C 315.080 25.309,313.336 26.947,312.441 27.786 C 311.545 28.626,310.319 29.817,309.715 30.435 C 309.112 31.052,308.618 31.517,308.618 31.469 C 308.618 31.421,308.472 31.528,308.293 31.707 C 308.114 31.886,307.967 32.118,307.967 32.222 C 307.967 32.327,307.927 32.371,307.878 32.322 C 307.828 32.273,307.327 32.698,306.763 33.267 C 306.199 33.836,305.691 34.255,305.633 34.197 C 305.576 34.139,305.528 34.208,305.528 34.350 C 305.528 34.491,305.460 34.631,305.377 34.661 C 305.293 34.691,304.799 35.121,304.279 35.616 C 303.759 36.111,302.089 37.676,300.569 39.094 C 299.049 40.511,297.352 42.137,296.799 42.705 C 296.246 43.274,295.716 43.740,295.620 43.740 C 295.525 43.740,295.447 43.862,295.447 44.011 C 295.447 44.160,295.403 44.238,295.350 44.184 C 295.296 44.131,294.784 44.574,294.211 45.169 C 293.639 45.765,293.166 46.181,293.160 46.093 C 293.155 46.006,293.082 46.104,292.999 46.311 C 292.916 46.518,292.774 46.642,292.684 46.586 C 292.594 46.530,292.520 46.593,292.520 46.725 C 292.520 46.857,292.452 46.989,292.368 47.019 C 292.284 47.049,291.717 47.552,291.107 48.137 C 290.498 48.723,288.756 50.361,287.236 51.777 C 285.715 53.194,283.983 54.848,283.386 55.454 C 282.788 56.059,282.258 56.513,282.207 56.462 C 282.156 56.410,282.114 56.495,282.114 56.649 C 282.114 56.803,282.040 56.884,281.950 56.828 C 281.860 56.773,281.718 56.896,281.635 57.103 C 281.552 57.310,281.479 57.424,281.474 57.357 C 281.468 57.289,281.098 57.608,280.650 58.064 C 280.203 58.521,279.833 58.832,279.827 58.756 C 279.821 58.680,279.749 58.787,279.666 58.994 C 279.583 59.201,279.441 59.325,279.351 59.269 C 279.261 59.213,279.187 59.276,279.187 59.408 C 279.187 59.540,279.118 59.672,279.034 59.702 C 278.950 59.732,278.383 60.235,277.774 60.821 C 277.165 61.407,275.459 63.008,273.984 64.380 C 272.508 65.751,270.778 67.407,270.138 68.060 C 269.498 68.712,268.931 69.202,268.878 69.149 C 268.824 69.095,268.780 69.178,268.780 69.332 C 268.780 69.486,268.707 69.567,268.617 69.511 C 268.526 69.456,268.385 69.579,268.302 69.786 C 268.219 69.993,268.146 70.107,268.140 70.040 C 268.135 69.972,267.774 70.281,267.339 70.725 C 266.903 71.170,266.508 71.494,266.459 71.446 C 266.411 71.397,266.323 71.511,266.263 71.697 C 266.204 71.884,266.088 71.995,266.005 71.944 C 265.922 71.893,265.854 71.959,265.854 72.091 C 265.854 72.223,265.785 72.355,265.701 72.385 C 265.617 72.415,264.975 72.988,264.273 73.659 C 263.572 74.329,261.939 75.863,260.645 77.067 C 259.351 78.271,257.689 79.861,256.951 80.600 C 256.213 81.339,255.610 81.895,255.610 81.835 C 255.610 81.776,255.463 81.884,255.285 82.076 C 255.106 82.268,254.959 82.514,254.959 82.622 C 254.959 82.730,254.918 82.777,254.867 82.726 C 254.816 82.675,254.406 83.011,253.955 83.471 C 253.504 83.932,253.069 84.291,252.990 84.268 C 252.911 84.246,252.846 84.342,252.846 84.481 C 252.846 84.621,252.772 84.689,252.683 84.634 C 252.593 84.579,252.520 84.607,252.520 84.697 C 252.520 84.915,250.726 86.596,250.547 86.545 C 250.470 86.522,250.407 86.610,250.407 86.740 C 250.407 86.870,250.305 87.034,250.181 87.106 C 249.870 87.285,245.253 91.640,243.618 93.296 C 242.880 94.043,242.276 94.608,242.276 94.550 C 242.276 94.492,241.717 95.018,241.032 95.718 C 240.348 96.419,239.726 96.974,239.650 96.951 C 239.574 96.929,239.512 97.014,239.512 97.141 C 239.512 97.268,239.443 97.396,239.359 97.425 C 239.275 97.455,238.708 97.959,238.099 98.544 C 237.490 99.129,235.748 100.767,234.228 102.184 C 232.707 103.600,230.975 105.255,230.378 105.860 C 229.780 106.466,229.250 106.919,229.199 106.868 C 229.148 106.817,229.106 106.901,229.106 107.056 C 229.106 107.210,229.032 107.291,228.942 107.235 C 228.852 107.179,228.710 107.303,228.627 107.510 C 228.544 107.717,228.471 107.832,228.466 107.766 C 228.460 107.700,228.002 108.103,227.449 108.661 C 226.895 109.218,226.383 109.657,226.310 109.634 C 226.238 109.612,226.179 109.697,226.179 109.824 C 226.179 109.951,226.110 110.079,226.026 110.108 C 225.942 110.138,225.375 110.641,224.766 111.227 C 224.157 111.812,222.415 113.451,220.894 114.868 C 219.374 116.285,217.643 117.942,217.049 118.549 C 216.454 119.156,215.923 119.609,215.870 119.555 C 215.816 119.502,215.772 119.584,215.772 119.739 C 215.772 119.893,215.699 119.974,215.608 119.918 C 215.518 119.862,215.376 119.986,215.293 120.193 C 215.210 120.400,215.138 120.514,215.132 120.446 C 215.127 120.379,214.744 120.708,214.282 121.178 C 213.821 121.648,213.382 122.014,213.307 121.992 C 213.232 121.970,213.171 122.065,213.171 122.205 C 213.171 122.344,213.098 122.413,213.008 122.358 C 212.919 122.302,212.846 122.331,212.846 122.420 C 212.846 122.639,211.051 124.320,210.872 124.268 C 210.795 124.246,210.732 124.323,210.732 124.441 C 210.732 124.558,210.341 124.990,209.865 125.402 L 208.997 126.151 188.361 63.076 L 167.724 0.001 143.740 0.003 L 119.756 0.005 59.919 167.744 M143.064 48.740 C 149.346 75.765,158.706 108.862,172.059 151.267 L 174.506 159.037 173.960 159.559 C 173.660 159.846,173.360 160.063,173.293 160.041 C 173.226 160.018,173.165 160.091,173.158 160.203 C 173.150 160.315,171.646 161.797,169.814 163.496 C 167.981 165.195,165.683 167.358,164.705 168.303 C 163.727 169.247,162.927 169.986,162.927 169.944 C 162.927 169.902,162.780 170.001,162.602 170.163 C 162.423 170.324,162.276 170.568,162.276 170.703 C 162.276 170.838,162.235 170.907,162.184 170.856 C 162.133 170.805,161.723 171.141,161.272 171.601 C 160.821 172.062,160.387 172.421,160.307 172.398 C 160.228 172.376,160.163 172.472,160.163 172.611 C 160.163 172.751,160.089 172.819,160.000 172.764 C 159.911 172.709,159.837 172.737,159.837 172.827 C 159.837 173.045,158.043 174.726,157.864 174.675 C 157.787 174.652,157.724 174.723,157.724 174.832 C 157.724 174.941,157.543 175.186,157.322 175.375 C 156.624 175.975,152.167 180.181,150.854 181.478 C 150.161 182.163,149.593 182.682,149.593 182.632 C 149.593 182.582,149.447 182.697,149.268 182.889 C 149.089 183.081,148.943 183.315,148.943 183.408 C 148.943 183.501,148.885 183.559,148.815 183.537 C 148.745 183.514,148.330 183.862,147.893 184.309 C 147.457 184.756,147.039 185.104,146.964 185.081 C 146.890 185.059,146.829 185.155,146.829 185.294 C 146.829 185.434,146.761 185.506,146.678 185.454 C 146.595 185.403,146.479 185.514,146.420 185.701 C 146.360 185.888,146.277 186.006,146.236 185.965 C 146.194 185.923,145.826 186.245,145.418 186.681 C 145.010 187.118,144.612 187.435,144.533 187.386 C 144.455 187.338,144.390 187.391,144.390 187.506 C 144.390 187.620,144.210 187.869,143.989 188.058 C 143.204 188.732,138.761 192.931,137.554 194.139 C 136.880 194.814,136.261 195.379,136.179 195.394 C 136.096 195.410,135.976 195.557,135.912 195.720 C 135.848 195.883,135.790 195.954,135.784 195.879 C 135.778 195.803,135.321 196.206,134.770 196.773 C 134.218 197.341,133.706 197.787,133.631 197.764 C 133.557 197.742,133.496 197.797,133.496 197.886 C 133.496 197.976,133.350 198.195,133.171 198.374 C 132.992 198.553,132.846 198.678,132.846 198.652 C 132.846 198.626,132.277 199.156,131.582 199.831 C 130.887 200.505,129.222 202.077,127.883 203.324 C 126.543 204.572,124.879 206.162,124.184 206.858 C 123.489 207.555,122.870 208.120,122.808 208.115 C 122.746 208.110,122.643 208.239,122.579 208.403 C 122.514 208.566,122.457 208.647,122.450 208.583 C 122.444 208.519,121.970 208.934,121.396 209.504 C 120.822 210.075,120.310 210.500,120.258 210.447 C 120.205 210.395,120.163 210.441,120.163 210.550 C 120.163 210.658,119.961 210.931,119.715 211.157 C 119.470 211.382,118.793 212.018,118.211 212.572 C 117.630 213.125,115.983 214.666,114.553 215.997 C 113.122 217.328,111.509 218.869,110.969 219.422 C 110.428 219.975,109.859 220.476,109.705 220.535 C 109.550 220.595,109.356 220.809,109.275 221.013 C 109.193 221.216,109.122 221.320,109.116 221.245 C 109.110 221.169,108.630 221.600,108.049 222.201 C 107.467 222.803,106.987 223.231,106.980 223.152 C 106.974 223.073,106.916 223.142,106.852 223.305 C 106.788 223.468,106.702 223.593,106.660 223.583 C 106.619 223.573,105.997 224.134,105.278 224.831 C 104.559 225.528,102.876 227.119,101.538 228.368 C 100.200 229.617,98.530 231.209,97.825 231.905 C 97.121 232.601,96.504 233.171,96.454 233.171 C 96.404 233.171,95.854 233.701,95.231 234.350 C 94.609 234.998,94.037 235.510,93.960 235.488 C 93.884 235.465,93.821 235.561,93.821 235.701 C 93.821 235.840,93.753 235.912,93.670 235.861 C 93.587 235.810,93.471 235.921,93.411 236.107 C 93.352 236.294,93.274 236.417,93.237 236.381 C 93.201 236.345,92.641 236.835,91.992 237.470 C 91.344 238.105,89.606 239.749,88.130 241.122 C 86.654 242.495,84.956 244.122,84.355 244.736 C 83.755 245.351,83.188 245.854,83.095 245.854 C 83.003 245.854,82.927 245.976,82.927 246.125 C 82.927 246.274,82.881 246.350,82.825 246.293 C 82.768 246.237,82.281 246.646,81.741 247.201 C 81.201 247.757,80.698 248.193,80.623 248.171 C 80.549 248.148,80.488 248.203,80.488 248.293 C 80.488 248.382,80.341 248.602,80.163 248.780 C 79.984 248.959,79.837 249.081,79.837 249.051 C 79.837 249.021,79.307 249.516,78.659 250.150 C 75.998 252.752,74.622 254.026,74.550 253.954 C 74.508 253.912,81.283 233.944,89.606 209.581 C 122.132 114.365,131.103 86.031,140.092 50.122 C 141.351 45.095,141.369 45.041,141.784 45.041 C 142.198 45.041,142.216 45.093,143.064 48.740 " stroke="none" fill="currentColor" fill-rule="evenodd"></path></g></svg>